Coordinates
version=1
nRows=26
nColumns=38
inDegrees=yes

Units are S.I. units (second, meters, Newtons, ...)
Angles are in degrees.

endheader
time	first_body_tilt	first_body_list	first_body_rotation	first_body_tx	first_body_ty	first_body_tz	hip_flexion_r	hip_adduction_r	hip_rotation_r	knee_angle_r	ankle_angle_r	subtalar_angle_r	mtp_angle_r	hip_flexion_l	hip_adduction_l	hip_rotation_l	knee_angle_l	ankle_angle_l	subtalar_angle_l	mtp_angle_l	lumbar_extension	lumbar_bending	lumbar_rotation	arm_flex_r	arm_add_r	arm_rot_r	elbow_flex_r	pro_sup_r	wrist_flex_r	wrist_dev_r	arm_flex_l	arm_add_l	arm_rot_l	elbow_flex_l	pro_sup_l	wrist_flex_l	wrist_dev_l
0.320000	-55.468623	-1.144723	-3.377585	0.331205	0.233907	0.069736	22.717804	-5.309117	-0.581476	-70.816233	-4.661562	0.000000	0.000000	18.310518	2.932271	-11.833543	-21.802693	7.729527	0.000000	0.000000	-2.653155	-4.894741	2.434026	-10.371472	-9.027677	-0.365314	30.031811	112.020652	0.000000	0.000000	8.505314	-11.663833	-4.355769	28.775089	112.929760	0.000000	0.000000	
0.325000	-54.830134	-1.090120	-3.319089	0.342086	0.233012	0.069044	23.282546	-5.156977	-0.726306	-70.999556	-4.467448	0.000000	0.000000	17.789471	2.902560	-11.709464	-21.479027	7.832248	0.000000	0.000000	-2.728420	-4.750393	2.154366	-10.631840	-9.072173	-0.642485	30.060561	112.012610	0.000000	0.000000	8.790704	-11.713209	-4.408046	28.888010	112.897460	0.000000	0.000000	
0.330000	-54.124160	-1.038504	-3.253394	0.353038	0.231788	0.068370	23.829757	-5.006340	-0.874753	-71.117662	-4.250437	0.000000	0.000000	17.263013	2.872245	-11.584684	-21.140237	7.927149	0.000000	0.000000	-2.801536	-4.605799	1.876097	-10.890623	-9.117857	-0.919264	30.103246	111.999472	0.000000	0.000000	9.075848	-11.756485	-4.480833	29.005563	112.867906	0.000000	0.000000	
0.335000	-53.343117	-0.992526	-3.182142	0.364060	0.230234	0.067708	24.360299	-4.858778	-1.026104	-71.172250	-4.000864	0.000000	0.000000	16.732498	2.841926	-11.460271	-20.787519	8.013923	0.000000	0.000000	-2.871587	-4.462301	1.600544	-11.148165	-9.164634	-1.192462	30.158787	111.980829	0.000000	0.000000	9.360039	-11.794195	-4.571650	29.129378	112.842220	0.000000	0.000000	
0.340000	-52.485513	-0.953107	-3.106992	0.375157	0.228349	0.067054	24.875219	-4.715093	-1.179702	-71.164130	-3.716553	0.000000	0.000000	16.199466	2.811576	-11.337098	-20.422230	8.092318	0.000000	0.000000	-2.937746	-4.320632	1.329303	-11.404867	-9.212231	-1.460025	30.226163	111.957170	0.000000	0.000000	9.642313	-11.827076	-4.676494	29.261496	112.821073	0.000000	0.000000	
0.345000	-51.554812	-0.919754	-3.029525	0.386344	0.226136	0.066404	25.375547	-4.575544	-1.334963	-71.093420	-3.401321	0.000000	0.000000	15.665503	2.780814	-11.215765	-20.045763	8.162237	0.000000	0.000000	-2.999346	-4.181133	1.064150	-11.661210	-9.260180	-1.721209	30.304590	111.929689	0.000000	0.000000	9.921554	-11.855900	-4.790616	29.404193	112.804621	0.000000	0.000000	
0.350000	-50.557777	-0.891023	-2.951157	0.397640	0.223601	0.065753	25.862149	-4.440087	-1.491377	-70.959831	-3.062845	0.000000	0.000000	15.132150	2.749178	-11.096571	-19.659496	8.223827	0.000000	0.000000	-3.055919	-4.043983	0.806933	-11.917732	-9.307824	-1.976604	30.393617	111.899957	0.000000	0.000000	10.196641	-11.881327	-4.909289	29.559698	112.792544	0.000000	0.000000	
0.355000	-49.502665	-0.865007	-2.873096	0.409065	0.220752	0.065097	26.335650	-4.308593	-1.648485	-70.762992	-2.710391	0.000000	0.000000	14.600872	2.716344	-10.979542	-19.264814	8.277537	0.000000	0.000000	-3.107188	-3.909423	0.559440	-12.174955	-9.354342	-2.227980	30.493095	111.869568	0.000000	0.000000	10.466600	-11.903818	-5.028418	29.729883	112.784148	0.000000	0.000000	
0.360000	-48.397623	-0.839783	-2.796309	0.420638	0.217599	0.064430	26.796428	-4.181007	-1.805830	-70.502714	-2.352831	0.000000	0.000000	14.073088	2.682271	-10.864507	-18.863197	8.324150	0.000000	0.000000	-3.153036	-3.777909	0.323271	-12.433283	-9.398809	-2.477952	30.603052	111.839831	0.000000	0.000000	10.730728	-11.923614	-5.144895	29.915984	112.778522	0.000000	0.000000	
0.365000	-47.249505	-0.813752	-2.721509	0.432376	0.214153	0.063747	27.244679	-4.057446	-1.962904	-70.179184	-1.997219	0.000000	0.000000	13.550233	2.647253	-10.751185	-18.456355	8.364781	0.000000	0.000000	-3.193441	-3.650189	0.099706	-12.692879	-9.440279	-2.729489	30.723485	111.811560	0.000000	0.000000	10.988673	-11.940783	-5.256685	30.118428	112.774707	0.000000	0.000000	
0.370000	-46.063234	-0.785845	-2.649147	0.444291	0.210428	0.063044	27.680497	-3.938220	-2.119094	-69.793041	-1.648049	0.000000	0.000000	13.033820	2.611889	-10.639254	-18.046339	8.400839	0.000000	0.000000	-3.228416	-3.527283	-0.110411	-12.953556	-9.477887	-2.985351	30.854142	111.784982	0.000000	0.000000	11.240441	-11.955317	-5.362672	30.336800	112.771851	0.000000	0.000000	
0.375000	-44.841662	-0.755591	-2.579405	0.456390	0.206436	0.062319	28.103936	-3.823794	-2.273652	-69.345339	-1.307167	0.000000	0.000000	12.525447	2.576989	-10.528380	-17.635590	8.433963	0.000000	0.000000	-3.257966	-3.410385	-0.306754	-13.214726	-9.510938	-3.247555	30.994344	111.759773	0.000000	0.000000	11.486333	-11.967237	-5.462376	30.569970	112.769328	0.000000	0.000000	
0.380000	-43.585876	-0.723079	-2.512193	0.468679	0.202191	0.061571	28.515031	-3.714716	-2.425697	-68.837423	-0.974202	0.000000	0.000000	12.026725	2.543458	-10.418192	-17.226871	8.465931	0.000000	0.000000	-3.282080	-3.300700	-0.489546	-13.475407	-9.538974	-3.516998	31.142902	111.735174	0.000000	0.000000	11.726817	-11.976676	-5.555602	30.816350	112.766805	0.000000	0.000000	
0.385000	-42.295757	-0.688825	-2.447166	0.481159	0.197707	0.060804	28.913738	-3.611512	-2.574252	-68.270735	-0.647327	0.000000	0.000000	11.539109	2.512172	-10.308224	-16.823072	8.498552	0.000000	0.000000	-3.300765	-3.199269	-0.659537	-13.734318	-9.561787	-3.793320	31.298157	111.710163	0.000000	0.000000	11.962358	-11.983924	-5.642147	31.074234	112.764238	0.000000	0.000000	
0.390000	-40.970652	-0.653603	-2.383751	0.493830	0.192999	0.060023	29.299817	-3.514590	-2.718312	-67.646606	-0.324134	0.000000	0.000000	11.063653	2.483874	-10.197863	-16.426896	8.533550	0.000000	0.000000	-3.314124	-3.106806	-0.817906	-13.990021	-9.579383	-4.075048	31.458114	111.683645	0.000000	0.000000	12.193245	-11.989428	-5.721589	31.342158	112.761819	0.000000	0.000000	
0.395000	-39.610001	-0.618257	-2.321200	0.506691	0.188082	0.059236	29.672684	-3.424154	-2.856923	-66.966060	-0.002439	0.000000	0.000000	10.600738	2.459115	-10.086334	-16.040491	8.572447	0.000000	0.000000	-3.322449	-3.023588	-0.966114	-14.241092	-9.591894	-4.360003	31.620648	111.654616	0.000000	0.000000	12.419451	-11.993737	-5.793192	31.619184	112.759851	0.000000	0.000000	
0.400000	-38.213800	-0.583539	-2.258651	0.519741	0.182969	0.058449	30.031277	-3.340144	-2.989243	-66.229684	0.319129	0.000000	0.000000	10.149845	2.438218	-9.972768	-15.665099	8.616467	0.000000	0.000000	-3.326308	-2.949414	-1.105713	-14.486269	-9.599478	-4.645851	31.783711	111.622292	0.000000	0.000000	12.640553	-11.997443	-5.855902	31.905075	112.758591	0.000000	0.000000	
0.405000	-36.782835	-0.550002	-2.195201	0.532980	0.177677	0.057672	30.373982	-3.262216	-3.114577	-65.437565	0.640823	0.000000	0.000000	9.709426	2.421283	-9.856358	-15.300795	8.666462	0.000000	0.000000	-3.326597	-2.883650	-1.238143	-14.724542	-9.602205	-4.930690	31.945484	111.586187	0.000000	0.000000	12.855736	-12.001115	-5.908407	32.200298	112.758070	0.000000	0.000000	
0.410000	-35.318685	-0.517949	-2.129963	0.546411	0.172221	0.056911	30.698654	-3.189748	-3.232357	-64.589323	0.961767	0.000000	0.000000	9.276942	2.408217	-9.736575	-14.946398	8.722878	0.000000	0.000000	-3.324538	-2.825344	-1.364544	-14.955161	-9.599994	-5.213515	32.104441	111.546138	0.000000	0.000000	13.063880	-12.005248	-5.949213	32.505881	112.757920	0.000000	0.000000	
0.415000	-33.823519	-0.487452	-2.062115	0.560036	0.166617	0.056170	31.002747	-3.121891	-3.342087	-63.684217	1.280208	0.000000	0.000000	8.849063	2.398775	-9.613388	-14.599580	8.785763	0.000000	0.000000	-3.321608	-2.773374	-1.485624	-15.177575	-9.592590	-5.494469	32.259329	111.502288	0.000000	0.000000	13.263718	-12.010259	-5.976719	32.823149	112.757241	0.000000	0.000000	
0.420000	-32.299766	-0.458416	-1.990939	0.573859	0.160881	0.055455	31.283534	-3.057639	-3.443262	-62.721296	1.593915	0.000000	0.000000	8.422024	2.392607	-9.487440	-14.257163	8.854821	0.000000	0.000000	-3.319411	-2.726619	-1.601598	-15.391310	-9.579611	-5.774825	32.409081	111.455032	0.000000	0.000000	13.454017	-12.016485	-5.989297	33.153397	112.754551	0.000000	0.000000	
0.425000	-30.749763	-0.430687	-1.915825	0.587886	0.155030	0.054767	31.538388	-2.995935	-3.535279	-61.699577	1.900611	0.000000	0.000000	7.992078	2.389312	-9.360092	-13.915570	8.929497	0.000000	0.000000	-3.319507	-2.684111	-1.712213	-15.595849	-9.560636	-6.056706	32.552705	111.404947	0.000000	0.000000	13.633759	-12.024207	-5.985383	33.497570	112.747826	0.000000	0.000000	
0.430000	-29.175490	-0.404142	-1.836278	0.602122	0.149080	0.054107	31.765068	-2.935782	-3.617378	-60.618203	2.198328	0.000000	0.000000	7.555973	2.388488	-9.233326	-13.571344	9.009093	0.000000	0.000000	-3.323218	-2.645139	-1.816855	-15.790527	-9.535334	-6.342582	32.689182	111.352717	0.000000	0.000000	13.802281	-12.033664	-5.963596	33.855999	112.734670	0.000000	0.000000	
0.435000	-27.578465	-0.378774	-1.751890	0.616571	0.143050	0.053475	31.961963	-2.876368	-3.688601	-59.476573	2.485568	0.000000	0.000000	7.111370	2.389796	-9.109495	-13.221660	9.092891	0.000000	0.000000	-3.331447	-2.609316	-1.914717	-15.974491	-9.503595	-6.634653	32.817404	111.299073	0.000000	0.000000	13.959341	-12.045048	-5.922905	34.228236	112.712586	0.000000	0.000000	
0.440000	-25.959875	-0.354728	-1.662305	0.631239	0.136957	0.052874	32.128245	-2.817180	-3.747804	-58.274423	2.761230	0.000000	0.000000	6.657128	2.393010	-8.990972	-12.864725	9.180266	0.000000	0.000000	-3.344529	-2.576596	-2.004993	-16.146726	-9.465634	-6.934198	32.936152	111.244749	0.000000	0.000000	14.105110	-12.058484	-5.862824	34.613004	112.679339	0.000000	0.000000	
0.445000	-24.320904	-0.332288	-1.567163	0.646126	0.130821	0.052306	32.263907	-2.758099	-3.793695	-57.011866	3.024324	0.000000	0.000000	6.193406	2.398086	-8.879763	-12.500004	9.270769	0.000000	0.000000	-3.362160	-2.547258	-2.087074	-16.306145	-9.422060	-7.241029	33.044116	111.190470	0.000000	0.000000	14.240082	-12.074002	-5.783604	35.008267	112.633326	0.000000	0.000000	
